<?xml version="1.0" encoding="iso-8859-1"?>
<!-- Generator: Adobe Illustrator 16.0.0, SVG Export Plug-In . SVG Version: 6.00 Build 0)  -->
<!DOCTYPE svg PUBLIC "-//W3C//DTD SVG 1.1//EN" "http://www.w3.org/Graphics/SVG/1.1/DTD/svg11.dtd">
<svg version="1.1" id="Capa_1" xmlns="http://www.w3.org/2000/svg" xmlns:xlink="http://www.w3.org/1999/xlink" x="0px" y="0px"
	 width="190.151px" height="190.151px" viewBox="0 0 190.151 190.151" style="enable-background:new 0 0 190.151 190.151;"
	 xml:space="preserve">
<g>
	<g>
		<path d="M68.566,78.248H38.248v17.706c0,0,8.85,3.769,8.85,9.979c0,4.949-1.695,18.893-1.695,27.873
			c0,6.971,1.131,57.819,8.008,56.312c6.875,1.508,8-49.341,8-56.312c0-8.98-1.695-22.924-1.695-27.873
			c0-6.211,8.851-9.979,8.851-9.979l0,0L68.566,78.248L68.566,78.248z"/>
		<rect x="35.136" y="73.825" width="36.159" height="3.114"/>
		<rect x="35.136" y="69.495" width="36.159" height="3.108"/>
		<rect x="35.136" y="64.697" width="36.159" height="3.109"/>
		<rect x="35.136" y="60.362" width="36.159" height="3.114"/>
		<rect x="35.136" y="55.272" width="36.159" height="3.108"/>
		<rect x="35.136" y="50.948" width="36.159" height="3.108"/>
		<rect x="35.136" y="46.138" width="36.159" height="3.115"/>
		<rect x="35.136" y="41.809" width="36.159" height="3.108"/>
		<rect x="35.329" y="37.38" width="36.158" height="3.114"/>
		<rect x="35.329" y="33.05" width="36.158" height="3.109"/>
		<rect x="35.329" y="27.966" width="36.158" height="3.115"/>
		<rect x="35.329" y="23.636" width="36.158" height="3.104"/>
		<rect x="35.329" y="18.833" width="36.158" height="3.103"/>
		<rect x="35.329" y="14.503" width="36.158" height="3.109"/>
		<rect x="35.136" y="9.7" width="36.159" height="3.114"/>
		<path d="M68.566,2.729c0,0-3.956-2.729-15.348-2.729s-14.97,2.729-14.97,2.729v6.03h30.318V2.729z"/>
	</g>
	<g>
		<path d="M102.874,95.954c0,0,13.885,3.769,13.885,9.979c0,4.949-2.658,18.893-2.658,27.873c0,6.971,1.776,57.819,12.553,56.312
			c10.785,1.508,12.557-49.341,12.557-56.312c0-8.98-2.658-22.924-2.658-27.873c0-6.211,13.884-9.979,13.884-9.979V78.248h-47.56
			v17.706H102.874z"/>
		<rect x="96.809" y="73.135" width="56.71" height="2.553"/>
		<rect x="97.102" y="68.297" width="56.709" height="2.554"/>
		<rect x="97.251" y="63.692" width="56.713" height="2.554"/>
		<rect x="97.403" y="58.854" width="56.711" height="2.56"/>
		<rect x="97.552" y="53.852" width="56.716" height="2.554"/>
		<rect x="97.7" y="49.019" width="56.713" height="2.554"/>
		<rect x="97.552" y="43.831" width="56.716" height="2.554"/>
		<rect x="97.849" y="39.062" width="56.71" height="2.554"/>
		<rect x="97.849" y="34.219" width="56.71" height="2.56"/>
		<rect x="97.849" y="29.03" width="56.71" height="2.553"/>
		<rect x="97.849" y="23.566" width="56.71" height="2.554"/>
		<rect x="97.849" y="18.511" width="56.71" height="2.554"/>
		<rect x="98.3" y="13.439" width="56.716" height="2.548"/>
		<path d="M149.235,4.534c0,0-6.199-2.729-24.067-2.729c-17.875,0-23.479,2.729-23.479,2.729v6.037h47.553V4.534H149.235z"/>
	</g>
</g>
<g>
</g>
<g>
</g>
<g>
</g>
<g>
</g>
<g>
</g>
<g>
</g>
<g>
</g>
<g>
</g>
<g>
</g>
<g>
</g>
<g>
</g>
<g>
</g>
<g>
</g>
<g>
</g>
<g>
</g>
</svg>
